<?xml version="1.0" encoding="UTF-8"?>
<svg id="Layer_2" data-name="Layer 2" xmlns="http://www.w3.org/2000/svg" xmlns:xlink="http://www.w3.org/1999/xlink" viewBox="0 0 1413.6 1413.6">
  <defs>
    <style>
      .cls-1 {
        fill: none;
      }

      .cls-2 {
        clip-path: url(#clippath);
      }

      .cls-3 {
        fill: #051b39;
      }

      .cls-4 {
        fill: #ed1c2d;
      }

      .cls-5 {
        fill: #1b4179;
      }
    </style>
    <clipPath id="clippath">
      <circle class="cls-1" cx="711.28" cy="697.92" r="473.45"/>
    </clipPath>
  </defs>
  <g class="cls-2">
    <g>
      <path class="cls-5" d="m833.54,1194.12c-.89-1.62-45.63,10.81-51.33,11.79-17.49,2.98-35.18,4.81-52.91,5.5-35.77,1.4-71.63-1.89-106.67-9.14,2.89-4.96,7.28-9.59,8.42-14.92,4.73-22.11,9.37-44.31,12.4-66.7,5.18-38.22,8.04-77.04-8.79-113.1-28.73-61.54-85.09-86.94-144.93-68.93-56.52,17.01-98.75,53.24-126.66,105.83-3.01,5.67-9.74,9.37-14.74,13.98-19.14-22.13-39.68-43.23-57-66.7-14.25-19.3-24.86-41.31-36.61-62.39-1.54-2.76-.24-7.11-.26-10.72,8.53.84,17.06,2.22,25.61,2.45,67.83,1.78,121.85-25.69,158.45-81.99,18.75-28.84,31.36-61.83,45.34-93.56,28.09-63.76,86.22-108.37,163.48-95.03,11.48,1.98,53.76,15.45,53.76,15.45,0,0,6,4.92,17.24,12.56,27.61,18.76,64.62,22.12,96.46,13.39,28.63-7.84,54.3-26.03,71.2-50.43,26.26-37.92,30.1-86.64,47.34-129.42,30.95-76.79,111.87-131.93,195.38-107.15,5.49,1.63,11.41,6.47,14.32,11.47,28.46,48.86,53.74,99.52,65.2,155.13,7.03,34.15,7.5,68.84,12.6,103.18,4.43,29.8-19.48,63.33-38.9,84.76-30.58,33.76-72.36,55.13-114.46,72.53-42.09,17.4-85.75,31.72-125.04,54.76-51.9,30.43-95.38,76.74-117.23,132.8-21.85,56.06-20.59,121.86,8.35,174.6Z"/>
      <path class="cls-4" d="m701.09,665.94c-17.09-4.88-40.23-13.11-53.77-15.45-77.26-13.34-135.39,31.27-163.48,95.03-13.98,31.73-26.59,64.72-45.34,93.56-36.6,56.3-90.62,83.77-158.45,81.99-8.55-.22-17.07-1.6-25.61-2.45-6.12-10.87-13.17-21.33-18.2-32.69-23.8-53.72-36.55-110.36-37.08-168.87-.79-86.16,16.57-163.12,52.4-241.42,10.11,3.64,7.84,18.89,13.7,27.89,5.9,9.07,18.66,9.91,29.47,9.51,94.37-3.46,190.93-29.56,262.69-90.95,39.35-33.66,69.66-76.39,103.64-115.46,40.66-46.75,89.17-86.79,151.02-100.28,10.78-2.35,21.35-5.71,32.02-8.6,50.16,8.33,93.77,31.28,136.55,57.74,19.54,12.09,10.09,26.03,6.93,37.69-13.96,51.55-38.08,97.34-82.51,129.96-39.73,29.17-85.1,42.32-133.12,49.84-46.14,7.22-84.21,28.22-101.25,74.78-15.25,41.67-3.18,93.17,30.39,118.18Z"/>
      <path class="cls-3" d="m827.05,1185.66c-18.45-7.66-23.85-39.16-26.36-56.37-3.67-25.17-1.02-51.84,4.44-76.57,11.79-53.4,40.78-103.16,82.59-138.59,48.52-41.12,109.74-61.83,167.44-86.29,28.96-12.28,57.68-25.59,83.94-43.05,29.97-19.92,46-53.32,68.33-80.9,5.38,11.37,3.65,35.47,1.22,48.15-11.26,58.72-27.08,116.23-53.25,170.4-21.16,43.81-47.64,83.99-82.5,118.12-23.32,22.83-45.53,47.5-71.73,66.52-24.73,17.96-50.76,34.22-78.18,47.75s-58.56,28.61-88.21,31.92c-2.76.31-5.34-.1-7.73-1.09Z"/>
      <path class="cls-3" d="m839.41,233.86c-10.67,2.89-21.23,6.25-32.02,8.6-55.89,12.19-100.09,43.64-137.58,85.06-27.81,30.73-53.93,63.01-80.64,94.73-44.99,53.43-102.97,87.37-168.81,106.62-41.26,12.06-86.61,21.34-129.76,20.95-6.9-.06-14-.52-20.26-3.43-14.51-6.74-20.44-25.2-17.75-40.97,2.8-16.46,13.1-30.3,21.1-44.41,8.73-15.42,18.36-30.21,29.06-44.36,30.83-40.77,68.84-75.58,109.83-105.92,71.11-52.63,150.49-83.08,237.89-91.75,45.64-4.53,91.79-7.32,137.34,3.45,17.15,4.05,34.4,7.64,51.61,11.43Z"/>
      <path class="cls-3" d="m348.31,1058.44c5-4.61,11.73-8.31,14.74-13.98,27.92-52.58,70.15-88.82,126.66-105.83,59.84-18.01,116.2,7.38,144.93,68.93,16.83,36.06,13.97,74.88,8.79,113.1-3.03,22.39-7.67,44.59-12.4,66.7-1.14,5.33-5.53,9.97-8.42,14.92-58.74-2.51-110.85-27.5-160.97-53.68-42.66-22.28-83.11-50.65-113.34-90.16Z"/>
    </g>
  </g>
</svg>