<?xml version="1.0" encoding="UTF-8"?>
<svg id="Layer_3" data-name="Layer 3" xmlns="http://www.w3.org/2000/svg" viewBox="0 0 963.69 664.91">
  <defs>
    <style>
      .cls-1 {
        fill: #ef3638;
      }

      .cls-2 {
        fill: #fdba12;
      }

      .cls-3 {
        fill: #cecece;
      }

      .cls-4 {
        fill: #bdbdbc;
      }

      .cls-5 {
        fill: #e1e1e1;
      }

      .cls-6 {
        fill: #2170b8;
      }
    </style>
  </defs>
  <polygon class="cls-1" points="581.28 166.18 389.38 166.18 341.43 83.11 293.44 0 485.34 0 485.34 .03 533.33 83.11 533.33 83.14 581.28 166.18"/>
  <polygon class="cls-6" points="963.69 166.29 771.79 166.29 723.84 83.22 675.86 .11 867.76 .11 867.76 .15 915.74 83.22 915.74 83.25 963.69 166.29"/>
  <path class="cls-3" d="m291.42.97c.35-.61.54-.94.57-.94,0,0,47.95,83.07,47.98,83.11l47.95,83.07-47.95,83.11s-47.98,83.07-47.98,83.11c0,0-47.98,83.07-47.98,83.11,0,0-47.95,83.07-47.98,83.07H.08c3.14-5.22,100.02-166.21,100.02-166.21,0,0,47.95-83.07,47.98-83.07l47.95-83.11,47.98-83.11S286.14,10.12,291.42.97Z"/>
  <path class="cls-5" d="m483.89,166.23l-.03.03v-.03h-95.93l-47.95,83.11-47.98,83.07v.03l-47.98,83.07v.03l-47.98,83.07h191.9l47.98-83.11,47.98-83.07-.03-.03h.03l47.95-83.07h.03l47.95-83.11h-95.93Zm-143.92,249.32l-.03-.03h.03v.03Zm47.95-83.11v-.03h.03l-.03.03Z"/>
  <path class="cls-3" d="m723.75,83.22L675.8.15l-47.98,83.07v.03l-47.98,83.07-47.95,83.07h-.03v.03l-47.95,83.07v.03l-47.98,83.07-47.95,83.07h-.03v.03l47.98,83.07v.03l47.95,83.07h.03l47.92-83.07.03-.03,47.95-83.07h.03v-.03l47.98-83.04-.03-.03h.03l47.98-83.11,47.95-83.07v-.03h.03l47.95-83.07-47.98-83.11Zm-239.91,415.49l.03-.03.03.03h-.07Zm96-166.18l-.03-.03h.03v.03Z"/>
  <path class="cls-4" d="m867.69,166.29v.03l-.03-.03h-95.93v.03l-47.95,83.07h-.03l-47.95,83.11-47.98,83.07-.03.03-47.95,83.07v.03h-.03l-47.95,83.07-47.95,83.11h191.86l47.98-83.07v-.03l47.98-83.07v-.03l47.98-83.07,47.95-83.11,47.98-83.11,47.98-83.07v-.03h-95.93Zm-239.91,415.49h.03v.03l-.03-.03Zm95.97-166.18l.03-.03.03.03h-.07Z"/>
  <polygon class="cls-2" points="483.86 664.79 95.93 664.91 95.93 664.87 47.95 581.8 0 498.73 387.93 498.62 483.86 664.79"/>
</svg>